<svg xmlns="http://www.w3.org/2000/svg" width="430" height="110" viewBox="0 0 430 110"><g transform="translate(6,15) scale(0.4)"><rect width="200" height="200" rx="46" fill="#2BB2EE"></rect><rect x="24" y="24" width="152" height="152" rx="30" fill="#0e1b27"></rect><rect x="34" y="32" width="62" height="68" rx="13" fill="#19333f"></rect><rect x="104" y="32" width="62" height="68" rx="13" fill="#19333f"></rect><rect x="34" y="108" width="132" height="50" rx="13" fill="#19333f"></rect><g transform="translate(48,46) scale(1.4167)"><path d="M20,11H23V13H20V11M1,11H4V13H1V11M13,1V4H11V1H13M4.92,3.5L7.05,5.64L5.63,7.05L3.5,4.93L4.92,3.5M16.95,5.63L19.07,3.5L20.5,4.93L18.37,7.05L16.95,5.63M12,6A6,6 0 0,1 18,12C18,14.22 16.79,16.16 15,17.2V19A1,1 0 0,1 14,20H10A1,1 0 0,1 9,19V17.2C7.21,16.16 6,14.22 6,12A6,6 0 0,1 12,6M14,21V22A1,1 0 0,1 13,23H11A1,1 0 0,1 10,22V21H14M11,18H13V15.87C14.73,15.43 16,13.86 16,12A4,4 0 0,0 12,8A4,4 0 0,0 8,12C8,13.86 9.27,15.43 11,15.87V18Z" fill="#F3C310"></path></g><g transform="translate(118,46) scale(1.4167)"><path d="M16.56,5.44L15.11,6.89C16.84,7.94 18,9.83 18,12A6,6 0 0,1 12,18A6,6 0 0,1 6,12C6,9.83 7.16,7.94 8.88,6.88L7.44,5.44C5.36,6.88 4,9.28 4,12A8,8 0 0,0 12,20A8,8 0 0,0 20,12C20,9.28 18.64,6.88 16.56,5.44M13,3H11V13H13Z" fill="#F3C310"></path></g><rect x="44" y="90" width="46" height="6" rx="3" fill="#c3d1d8" fill-opacity="0.85"></rect><rect x="114" y="90" width="40" height="6" rx="3" fill="#c3d1d8" fill-opacity="0.85"></rect><circle cx="59" cy="133" r="16" fill="#3C9BD4"></circle><path d="M49,136 A10,10 0 0,1 69,136" stroke="#fff" stroke-width="2.5" fill="none" stroke-linecap="round"></path><line x1="59" y1="135" x2="65" y2="127" stroke="#fff" stroke-width="2.5" stroke-linecap="round"></line><circle cx="59" cy="135" r="2.4" fill="#fff"></circle><rect x="84" y="126" width="44" height="10" rx="5" fill="#4FA8DA"></rect><rect x="84" y="141" width="28" height="6" rx="3" fill="#c3d1d8" fill-opacity="0.4"></rect><circle cx="86" cy="167" r="3.4" fill="#ffffff" fill-opacity="0.28"></circle><rect x="95" y="163.5" width="16" height="7" rx="3.5" fill="#ffffff" fill-opacity="0.85"></rect><circle cx="124" cy="167" r="3.4" fill="#ffffff" fill-opacity="0.28"></circle></g><text x="100" y="60" font-family="Montserrat, &#39;Helvetica Neue&#39;, Arial, sans-serif" font-weight="800" font-size="44" letter-spacing="-1"><tspan fill="#f4f3ee">ESPanel</tspan><tspan fill="#41BDF5">HA</tspan></text><text x="102" y="86" font-family="&#39;JetBrains Mono&#39;, ui-monospace, monospace" font-size="13" letter-spacing="1.5" fill="#7c98a8">ESP32 · HOME ASSISTANT</text></svg>