<svg xmlns="http://www.w3.org/2000/svg" width="200" height="200" viewBox="0 0 200 200"><rect width="200" height="200" rx="46" fill="#2BB2EE"></rect><rect x="20" y="20" width="160" height="160" rx="32" fill="#2F6480"></rect><rect x="32" y="56" width="64" height="88" rx="15" fill="#0c1923"></rect><rect x="104" y="56" width="64" height="88" rx="15" fill="#0c1923"></rect><g transform="translate(45,81) scale(1.6)"><path d="M20,11H23V13H20V11M1,11H4V13H1V11M13,1V4H11V1H13M4.92,3.5L7.05,5.64L5.63,7.05L3.5,4.93L4.92,3.5M16.95,5.63L19.07,3.5L20.5,4.93L18.37,7.05L16.95,5.63M12,6A6,6 0 0,1 18,12C18,14.22 16.79,16.16 15,17.2V19A1,1 0 0,1 14,20H10A1,1 0 0,1 9,19V17.2C7.21,16.16 6,14.22 6,12A6,6 0 0,1 12,6M14,21V22A1,1 0 0,1 13,23H11A1,1 0 0,1 10,22V21H14M11,18H13V15.87C14.73,15.43 16,13.86 16,12A4,4 0 0,0 12,8A4,4 0 0,0 8,12C8,13.86 9.27,15.43 11,15.87V18Z" fill="#F3C310" stroke="#F3C310" stroke-width="1.05" stroke-linejoin="round" stroke-linecap="round"></path></g><g transform="translate(117,81) scale(1.6)"><path d="M16.56,5.44L15.11,6.89C16.84,7.94 18,9.83 18,12A6,6 0 0,1 12,18A6,6 0 0,1 6,12C6,9.83 7.16,7.94 8.88,6.88L7.44,5.44C5.36,6.88 4,9.28 4,12A8,8 0 0,0 12,20A8,8 0 0,0 20,12C20,9.28 18.64,6.88 16.56,5.44M13,3H11V13H13Z" fill="#F3C310" stroke="#F3C310" stroke-width="1.05" stroke-linejoin="round" stroke-linecap="round"></path></g></svg>