<svg xmlns="http://www.w3.org/2000/svg" style="display:none"><symbol id="mdi-lightbulb" viewBox="0 0 24 24"><path fill="currentColor" d="M12,2A7,7 0 0,0 5,9C5,11.38 6.19,13.47 8,14.74V17A1,1 0 0,0 9,18H15A1,1 0 0,0 16,17V14.74C17.81,13.47 19,11.38 19,9A7,7 0 0,0 12,2M9,21A1,1 0 0,0 10,22H14A1,1 0 0,0 15,21V20H9V21Z"/></symbol><symbol id="mdi-lightbulb-outline" viewBox="0 0 24 24"><path fill="currentColor" d="M12,2A7,7 0 0,1 19,9C19,11.38 17.81,13.47 16,14.74V17A1,1 0 0,1 15,18H9A1,1 0 0,1 8,17V14.74C6.19,13.47 5,11.38 5,9A7,7 0 0,1 12,2M9,21V20H15V21A1,1 0 0,1 14,22H10A1,1 0 0,1 9,21M12,4A5,5 0 0,0 7,9C7,11.05 8.23,12.81 10,13.58V16H14V13.58C15.77,12.81 17,11.05 17,9A5,5 0 0,0 12,4Z"/></symbol><symbol id="mdi-lightbulb-group" viewBox="0 0 24 24"><path fill="currentColor" d="M15 14V16A1 1 0 0 1 14 17H10A1 1 0 0 1 9 16V14A5 5 0 1 1 15 14M14 18H10V19A1 1 0 0 0 11 20H13A1 1 0 0 0 14 19M7 19V18H5V19A1 1 0 0 0 6 20H7.17A2.93 2.93 0 0 1 7 19M5 10A6.79 6.79 0 0 1 5.68 7A4 4 0 0 0 4 14.45V16A1 1 0 0 0 5 17H7V14.88A6.92 6.92 0 0 1 5 10M17 18V19A2.93 2.93 0 0 1 16.83 20H18A1 1 0 0 0 19 19V18M18.32 7A6.79 6.79 0 0 1 19 10A6.92 6.92 0 0 1 17 14.88V17H19A1 1 0 0 0 20 16V14.45A4 4 0 0 0 18.32 7Z"/></symbol><symbol id="mdi-ceiling-light" viewBox="0 0 24 24"><path fill="currentColor" d="M8,9H11V4H13V9H16L20,17H4L8,9M14,18A2,2 0 0,1 12,20A2,2 0 0,1 10,18H14Z"/></symbol><symbol id="mdi-floor-lamp" viewBox="0 0 24 24"><path fill="currentColor" d="M15,2L17,9H7L9,2M11,10H13V20H16V22H8V20H11V10Z"/></symbol><symbol id="mdi-lamp" viewBox="0 0 24 24"><path fill="currentColor" d="M8,2H16L20,14H4L8,2M11,15H13V20H18V22H6V20H11V15Z"/></symbol><symbol id="mdi-led-strip-variant" viewBox="0 0 24 24"><path fill="currentColor" d="M2.95 3L2 6.91L19.34 11.25L20.29 7.34L2.95 3M6.09 6.89L4.16 6.41L4.64 4.46L6.57 4.94L6.09 6.89M9.94 7.86L8 7.38L8.5 5.42L10.42 5.91L9.94 7.86M13.8 8.82L11.87 8.34L12.35 6.39L14.27 6.87L13.8 8.82M17.65 9.79L15.72 9.31L16.2 7.35L18.13 7.84L17.65 9.79M4.66 12.75L3.71 16.66L21.05 21L22 17.1L4.66 12.75M7.8 16.65L5.88 16.16L6.35 14.21L8.28 14.69L7.8 16.65M11.65 17.61L9.73 17.13L10.2 15.18L12.13 15.66L11.65 17.61M15.5 18.58L13.58 18.09L14.06 16.14L16 16.62L15.5 18.58M19.36 19.54L17.43 19.06L17.91 17.11L19.84 17.59L19.36 19.54M6.25 12.11L11 10.2L17.75 11.89L13 13.8L6.25 12.11Z"/></symbol><symbol id="mdi-string-lights" viewBox="0 0 24 24"><path fill="currentColor" d="M22.56 11.39C22.36 10.59 21.82 9.85 21.05 9.44L20.63 7.74C21.11 7.58 21.57 7.41 22 7.23V5C20 6.07 16.53 7.03 12 7.03S4 6.07 2 5V7.23C2.43 7.41 2.89 7.58 3.37 7.74L2.95 9.44C2.18 9.85 1.64 10.59 1.44 11.39C.905 13.57 .385 17.31 2.92 17.93C4 18.2 6 17.89 7.27 12.82C7.46 12 7.33 11.12 6.84 10.39L7.26 8.67C8.14 8.81 9.05 8.9 10 8.96V10.74C9.35 11.33 9 12.17 9 13C9 15.24 9.39 19 12 19C13.12 19 15 18.22 15 13C15 12.17 14.65 11.33 14 10.74V8.96C14.95 8.9 15.86 8.81 16.74 8.67L17.16 10.39C16.67 11.12 16.54 12 16.73 12.82C18 17.89 20 18.2 21.08 17.93C23.61 17.31 23.09 13.57 22.56 11.39M5.81 12.47C5.81 12.47 4.74 16.84 3.28 16.5C1.82 16.12 2.9 11.75 2.9 11.75S3.26 10.29 4.71 10.65 5.81 12.47 5.81 12.47M12 17.5C10.5 17.5 10.5 13 10.5 13S10.5 11.5 12 11.5 13.5 13 13.5 13 13.5 17.5 12 17.5M20.72 16.5C19.27 16.84 18.19 12.47 18.19 12.47S17.83 11 19.29 10.65 21.1 11.75 21.1 11.75 22.18 16.12 20.72 16.5Z"/></symbol><symbol id="mdi-track-light" viewBox="0 0 24 24"><path fill="currentColor" d="M6,1V3H9V6.4L4.11,4.38L1.43,10.84L6.97,13.14L11.94,16.82L13.79,17.59L17.62,8.35L15.77,7.58L11,6.87V3H14V1H6M21.81,6.29L19.5,7.25L20.26,9.1L22.57,8.14L21.81,6.29M19.78,13.57L19,15.42L21.79,16.57L22.55,14.72L19.78,13.57M16.19,18.93L14.34,19.69L15.3,22L17.15,21.23L16.19,18.93Z"/></symbol><symbol id="mdi-power-socket-eu" viewBox="0 0 24 24"><path fill="currentColor" d="M7.5,10.5A1.5,1.5 0 0,1 9,12A1.5,1.5 0 0,1 7.5,13.5C6.66,13.5 6,12.83 6,12A1.5,1.5 0 0,1 7.5,10.5M16.5,10.5A1.5,1.5 0 0,1 18,12A1.5,1.5 0 0,1 16.5,13.5A1.5,1.5 0 0,1 15,12A1.5,1.5 0 0,1 16.5,10.5M4.22,2H19.78C21,2 22,3 22,4.22V19.78A2.22,2.22 0 0,1 19.78,22H4.22C3,22 2,21 2,19.78V4.22A2.22,2.22 0 0,1 4.22,2M12,4A8,8 0 0,0 4,12A8,8 0 0,0 12,20A8,8 0 0,0 20,12A8,8 0 0,0 12,4Z"/></symbol><symbol id="mdi-power-plug" viewBox="0 0 24 24"><path fill="currentColor" d="M16,7V3H14V7H10V3H8V7H8C7,7 6,8 6,9V14.5L9.5,18V21H14.5V18L18,14.5V9C18,8 17,7 16,7Z"/></symbol><symbol id="mdi-power-plug-outline" viewBox="0 0 24 24"><path fill="currentColor" d="M16 7V3H14V7H10V3H8V7C7 7 6 8 6 9V14.5L9.5 18V21H14.5V18L18 14.5V9C18 8 17 7 16 7M16 13.67L13.09 16.59L12.67 17H11.33L10.92 16.59L8 13.67V9.09C8 9.06 8.06 9 8.09 9H15.92C15.95 9 16 9.06 16 9.09V13.67Z"/></symbol><symbol id="mdi-toggle-switch-variant" viewBox="0 0 24 24"><path fill="currentColor" d="M18.4 1.6C18 1.2 17.5 1 17 1H7C6.5 1 6 1.2 5.6 1.6C5.2 2 5 2.5 5 3V21C5 21.5 5.2 22 5.6 22.4C6 22.8 6.5 23 7 23H17C17.5 23 18 22.8 18.4 22.4C18.8 22 19 21.5 19 21V3C19 2.5 18.8 2 18.4 1.6M16 7C16 7.6 15.6 8 15 8H9C8.4 8 8 7.6 8 7V5C8 4.4 8.4 4 9 4H15C15.6 4 16 4.4 16 5V7Z"/></symbol><symbol id="mdi-toggle-switch-variant-off" viewBox="0 0 24 24"><path fill="currentColor" d="M5.6 1.6C6 1.2 6.5 1 7 1H17C17.5 1 18 1.2 18.4 1.6C18.8 2 19 2.5 19 3V21C19 21.5 18.8 22 18.4 22.4C18 22.8 17.5 23 17 23H7C6.5 23 6 22.8 5.6 22.4C5.2 22 5 21.5 5 21V3C5 2.5 5.2 2 5.6 1.6M8 3C7.4 3 7 3.4 7 4V20C7 20.6 7.4 21 8 21H16C16.6 21 17 20.6 17 20V4C17 3.4 16.6 3 16 3H8M8 17C8 16.4 8.4 16 9 16H15C15.6 16 16 16.4 16 17V19C16 19.6 15.6 20 15 20H9C8.4 20 8 19.6 8 19V17Z"/></symbol><symbol id="mdi-light-switch" viewBox="0 0 24 24"><path fill="currentColor" d="M8 6V18H16V6H8M14 10H10V8H14V10M19.4 1.6C19 1.2 18.5 1 18 1H6C5.5 1 5 1.2 4.6 1.6C4.2 2 4 2.5 4 3V21C4 21.5 4.2 22 4.6 22.4C5 22.8 5.5 23 6 23H18C18.5 23 19 22.8 19.4 22.4C19.8 22 20 21.5 20 21V3C20 2.5 19.8 2 19.4 1.6M18 21H6V3H18V21Z"/></symbol><symbol id="mdi-power" viewBox="0 0 24 24"><path fill="currentColor" d="M16.56,5.44L15.11,6.89C16.84,7.94 18,9.83 18,12A6,6 0 0,1 12,18A6,6 0 0,1 6,12C6,9.83 7.16,7.94 8.88,6.88L7.44,5.44C5.36,6.88 4,9.28 4,12A8,8 0 0,0 12,20A8,8 0 0,0 20,12C20,9.28 18.64,6.88 16.56,5.44M13,3H11V13H13"/></symbol><symbol id="mdi-thermometer" viewBox="0 0 24 24"><path fill="currentColor" d="M15 13V5A3 3 0 0 0 9 5V13A5 5 0 1 0 15 13M12 4A1 1 0 0 1 13 5V8H11V5A1 1 0 0 1 12 4Z"/></symbol><symbol id="mdi-water-percent" viewBox="0 0 24 24"><path fill="currentColor" d="M12,3.25C12,3.25 6,10 6,14C6,17.32 8.69,20 12,20A6,6 0 0,0 18,14C18,10 12,3.25 12,3.25M14.47,9.97L15.53,11.03L9.53,17.03L8.47,15.97M9.75,10A1.25,1.25 0 0,1 11,11.25A1.25,1.25 0 0,1 9.75,12.5A1.25,1.25 0 0,1 8.5,11.25A1.25,1.25 0 0,1 9.75,10M14.25,14.5A1.25,1.25 0 0,1 15.5,15.75A1.25,1.25 0 0,1 14.25,17A1.25,1.25 0 0,1 13,15.75A1.25,1.25 0 0,1 14.25,14.5Z"/></symbol><symbol id="mdi-gauge" viewBox="0 0 24 24"><path fill="currentColor" d="M12,2A10,10 0 0,0 2,12A10,10 0 0,0 12,22A10,10 0 0,0 22,12A10,10 0 0,0 12,2M12,4A8,8 0 0,1 20,12C20,14.4 19,16.5 17.3,18C15.9,16.7 14,16 12,16C10,16 8.2,16.7 6.7,18C5,16.5 4,14.4 4,12A8,8 0 0,1 12,4M14,5.89C13.62,5.9 13.26,6.15 13.1,6.54L11.81,9.77L11.71,10C11,10.13 10.41,10.6 10.14,11.26C9.73,12.29 10.23,13.45 11.26,13.86C12.29,14.27 13.45,13.77 13.86,12.74C14.12,12.08 14,11.32 13.57,10.76L13.67,10.5L14.96,7.29L14.97,7.26C15.17,6.75 14.92,6.17 14.41,5.96C14.28,5.91 14.15,5.89 14,5.89M10,6A1,1 0 0,0 9,7A1,1 0 0,0 10,8A1,1 0 0,0 11,7A1,1 0 0,0 10,6M7,9A1,1 0 0,0 6,10A1,1 0 0,0 7,11A1,1 0 0,0 8,10A1,1 0 0,0 7,9M17,9A1,1 0 0,0 16,10A1,1 0 0,0 17,11A1,1 0 0,0 18,10A1,1 0 0,0 17,9Z"/></symbol><symbol id="mdi-lightning-bolt" viewBox="0 0 24 24"><path fill="currentColor" d="M11 15H6L13 1V9H18L11 23V15Z"/></symbol><symbol id="mdi-flash" viewBox="0 0 24 24"><path fill="currentColor" d="M7,2V13H10V22L17,10H13L17,2H7Z"/></symbol><symbol id="mdi-weather-partly-cloudy" viewBox="0 0 24 24"><path fill="currentColor" d="M12.74,5.47C15.1,6.5 16.35,9.03 15.92,11.46C17.19,12.56 18,14.19 18,16V16.17C18.31,16.06 18.65,16 19,16A3,3 0 0,1 22,19A3,3 0 0,1 19,22H6A4,4 0 0,1 2,18A4,4 0 0,1 6,14H6.27C5,12.45 4.6,10.24 5.5,8.26C6.72,5.5 9.97,4.24 12.74,5.47M11.93,7.3C10.16,6.5 8.09,7.31 7.31,9.07C6.85,10.09 6.93,11.22 7.41,12.13C8.5,10.83 10.16,10 12,10C12.7,10 13.38,10.12 14,10.34C13.94,9.06 13.18,7.86 11.93,7.3M13.55,3.64C13,3.4 12.45,3.23 11.88,3.12L14.37,1.82L15.27,4.71C14.76,4.29 14.19,3.93 13.55,3.64M6.09,4.44C5.6,4.79 5.17,5.19 4.8,5.63L4.91,2.82L7.87,3.5C7.25,3.71 6.65,4.03 6.09,4.44M18,9.71C17.91,9.12 17.78,8.55 17.59,8L19.97,9.5L17.92,11.73C18.03,11.08 18.05,10.4 18,9.71M3.04,11.3C3.11,11.9 3.24,12.47 3.43,13L1.06,11.5L3.1,9.28C3,9.93 2.97,10.61 3.04,11.3M19,18H16V16A4,4 0 0,0 12,12A4,4 0 0,0 8,16H6A2,2 0 0,0 4,18A2,2 0 0,0 6,20H19A1,1 0 0,0 20,19A1,1 0 0,0 19,18Z"/></symbol><symbol id="mdi-motion-sensor" viewBox="0 0 24 24"><path fill="currentColor" d="M10,0.2C9,0.2 8.2,1 8.2,2C8.2,3 9,3.8 10,3.8C11,3.8 11.8,3 11.8,2C11.8,1 11,0.2 10,0.2M15.67,1A7.33,7.33 0 0,0 23,8.33V7A6,6 0 0,1 17,1H15.67M18.33,1C18.33,3.58 20.42,5.67 23,5.67V4.33C21.16,4.33 19.67,2.84 19.67,1H18.33M21,1A2,2 0 0,0 23,3V1H21M7.92,4.03C7.75,4.03 7.58,4.06 7.42,4.11L2,5.8V11H3.8V7.33L5.91,6.67L2,22H3.8L6.67,13.89L9,17V22H10.8V15.59L8.31,11.05L9.04,8.18L10.12,10H15V8.2H11.38L9.38,4.87C9.08,4.37 8.54,4.03 7.92,4.03Z"/></symbol><symbol id="mdi-door" viewBox="0 0 24 24"><path fill="currentColor" d="M8,3C6.89,3 6,3.89 6,5V21H18V5C18,3.89 17.11,3 16,3H8M8,5H16V19H8V5M13,11V13H15V11H13Z"/></symbol><symbol id="mdi-window-closed-variant" viewBox="0 0 24 24"><path fill="currentColor" d="M21 20V2H3V20H1V23H23V20M19 4V11H13V4M5 4H11V11H5M5 20V13H11V20M13 20V13H19V20Z"/></symbol><symbol id="mdi-home-assistant" viewBox="0 0 24 24"><path fill="currentColor" d="M21.8,13H20V21H13V17.67L15.79,14.88L16.5,15C17.66,15 18.6,14.06 18.6,12.9C18.6,11.74 17.66,10.8 16.5,10.8A2.1,2.1 0 0,0 14.4,12.9L14.5,13.61L13,15.13V9.65C13.66,9.29 14.1,8.6 14.1,7.8A2.1,2.1 0 0,0 12,5.7A2.1,2.1 0 0,0 9.9,7.8C9.9,8.6 10.34,9.29 11,9.65V15.13L9.5,13.61L9.6,12.9A2.1,2.1 0 0,0 7.5,10.8A2.1,2.1 0 0,0 5.4,12.9A2.1,2.1 0 0,0 7.5,15L8.21,14.88L11,17.67V21H4V13H2.25C1.83,13 1.42,13 1.42,12.79C1.43,12.57 1.85,12.15 2.28,11.72L11,3C11.33,2.67 11.67,2.33 12,2.33C12.33,2.33 12.67,2.67 13,3L17,7V6H19V9L21.78,11.78C22.18,12.18 22.59,12.59 22.6,12.8C22.6,13 22.2,13 21.8,13M7.5,12A0.9,0.9 0 0,1 8.4,12.9A0.9,0.9 0 0,1 7.5,13.8A0.9,0.9 0 0,1 6.6,12.9A0.9,0.9 0 0,1 7.5,12M16.5,12C17,12 17.4,12.4 17.4,12.9C17.4,13.4 17,13.8 16.5,13.8A0.9,0.9 0 0,1 15.6,12.9A0.9,0.9 0 0,1 16.5,12M12,6.9C12.5,6.9 12.9,7.3 12.9,7.8C12.9,8.3 12.5,8.7 12,8.7C11.5,8.7 11.1,8.3 11.1,7.8C11.1,7.3 11.5,6.9 12,6.9Z"/></symbol><symbol id="mdi-signal-cellular-1" viewBox="0 0 24 24"><path fill="currentColor" d="M19.5,5.5V18.5H17.5V5.5H19.5M12.5,10.5V18.5H10.5V10.5H12.5M21,4H16V20H21V4M14,9H9V20H14V9M7,14H2V20H7V14Z"/></symbol><symbol id="mdi-signal-cellular-2" viewBox="0 0 24 24"><path fill="currentColor" d="M19.5,5.5V18.5H17.5V5.5H19.5M21,4H16V20H21V4M14,9H9V20H14V9M7,14H2V20H7V14Z"/></symbol><symbol id="mdi-signal-cellular-3" viewBox="0 0 24 24"><path fill="currentColor" d="M21,4H16V20H21V4M14,9H9V20H14V9M7,14H2V20H7V14Z"/></symbol><symbol id="mdi-signal-cellular-outline" viewBox="0 0 24 24"><path fill="currentColor" d="M19.5,5.5V18.5H17.5V5.5H19.5M12.5,10.5V18.5H10.5V10.5H12.5M5.5,15.5V18.5H3.5V15.5H5.5M21,4H16V20H21V4M14,9H9V20H14V9M7,14H2V20H7V14Z"/></symbol><symbol id="mdi-help-circle-outline" viewBox="0 0 24 24"><path fill="currentColor" d="M11,18H13V16H11V18M12,2A10,10 0 0,0 2,12A10,10 0 0,0 12,22A10,10 0 0,0 22,12A10,10 0 0,0 12,2M12,20C7.59,20 4,16.41 4,12C4,7.59 7.59,4 12,4C16.41,4 20,7.59 20,12C20,16.41 16.41,20 12,20M12,6A4,4 0 0,0 8,10H10A2,2 0 0,1 12,8A2,2 0 0,1 14,10C14,12 11,11.75 11,15H13C13,12.75 16,12.5 16,10A4,4 0 0,0 12,6Z"/></symbol><symbol id="mdi-alert-circle-outline" viewBox="0 0 24 24"><path fill="currentColor" d="M11,15H13V17H11V15M11,7H13V13H11V7M12,2C6.47,2 2,6.5 2,12A10,10 0 0,0 12,22A10,10 0 0,0 22,12A10,10 0 0,0 12,2M12,20A8,8 0 0,1 4,12A8,8 0 0,1 12,4A8,8 0 0,1 20,12A8,8 0 0,1 12,20Z"/></symbol></svg>
